<?xml version="1.0" encoding="UTF-8" standalone="no"?>
<!-- Generator: Adobe Illustrator 15.1.0, SVG Export Plug-In  -->

<svg
   xmlns:dc="http://purl.org/dc/elements/1.1/"
   xmlns:cc="http://creativecommons.org/ns#"
   xmlns:rdf="http://www.w3.org/1999/02/22-rdf-syntax-ns#"
   xmlns:svg="http://www.w3.org/2000/svg"
   xmlns="http://www.w3.org/2000/svg"
   xmlns:xlink="http://www.w3.org/1999/xlink"
   xmlns:sodipodi="http://sodipodi.sourceforge.net/DTD/sodipodi-0.dtd"
   xmlns:inkscape="http://www.inkscape.org/namespaces/inkscape"
   version="1.1"
   x="0px"
   y="0px"
   width="277.77777"
   height="100"
   viewBox="0 0 277.77777 100"
   enable-background="new 0 0 525 189"
   xml:space="preserve"
   id="svg3549"
   inkscape:version="0.48.2 r9819"
   sodipodi:docname="logo.svg"><metadata
   id="metadata4111"><rdf:RDF><cc:Work
       rdf:about=""><dc:format>image/svg+xml</dc:format><dc:type
         rdf:resource="http://purl.org/dc/dcmitype/StillImage" /></cc:Work></rdf:RDF></metadata><sodipodi:namedview
   pagecolor="#ffffff"
   bordercolor="#666666"
   borderopacity="1"
   objecttolerance="10"
   gridtolerance="10"
   guidetolerance="10"
   inkscape:pageopacity="0"
   inkscape:pageshadow="2"
   inkscape:window-width="1920"
   inkscape:window-height="1005"
   id="namedview4109"
   showgrid="false"
   fit-margin-top="-2.7755576e-017"
   fit-margin-left="0"
   fit-margin-right="0"
   fit-margin-bottom="0"
   inkscape:zoom="3.352381"
   inkscape:cx="200.98904"
   inkscape:cy="91.815341"
   inkscape:window-x="-9"
   inkscape:window-y="-9"
   inkscape:window-maximized="1"
   inkscape:current-layer="svg3549" />
<defs
   id="defs3551">
<linearGradient
   inkscape:collect="always"
   xlink:href="#SVGID_1_"
   id="linearGradient4328"
   gradientUnits="userSpaceOnUse"
   x1="218.71339"
   y1="84.995102"
   x2="218.71339"
   y2="55.754902"
   gradientTransform="matrix(0.52910053,0,0,0.52910053,-5.9383543e-7,0)" /><linearGradient
   inkscape:collect="always"
   xlink:href="#SVGID_2_"
   id="linearGradient4330"
   gradientUnits="userSpaceOnUse"
   x1="257.58109"
   y1="84.995102"
   x2="257.58109"
   y2="55.754902"
   gradientTransform="matrix(0.52910053,0,0,0.52910053,-5.9383543e-7,0)" /><linearGradient
   inkscape:collect="always"
   xlink:href="#SVGID_3_"
   id="linearGradient4332"
   gradientUnits="userSpaceOnUse"
   x1="316.0928"
   y1="132.9326"
   x2="316.0928"
   y2="91.670898"
   gradientTransform="matrix(0.52910053,0,0,0.52910053,-5.9383543e-7,0)" /><linearGradient
   inkscape:collect="always"
   xlink:href="#SVGID_4_"
   id="linearGradient4334"
   gradientUnits="userSpaceOnUse"
   x1="343.35739"
   y1="132.0332"
   x2="343.35739"
   y2="92.573196"
   gradientTransform="matrix(0.52910053,0,0,0.52910053,-5.9383543e-7,0)" /><linearGradient
   inkscape:collect="always"
   xlink:href="#SVGID_5_"
   id="linearGradient4336"
   gradientUnits="userSpaceOnUse"
   x1="375.2305"
   y1="132.0332"
   x2="375.2305"
   y2="92.573196"
   gradientTransform="matrix(0.52910053,0,0,0.52910053,-5.9383543e-7,0)" /><linearGradient
   inkscape:collect="always"
   xlink:href="#SVGID_6_"
   id="linearGradient4338"
   gradientUnits="userSpaceOnUse"
   x1="407.99609"
   y1="132.0332"
   x2="407.99609"
   y2="92.573196"
   gradientTransform="matrix(0.52910053,0,0,0.52910053,-5.9383543e-7,0)" /><linearGradient
   inkscape:collect="always"
   xlink:href="#SVGID_7_"
   id="linearGradient4340"
   gradientUnits="userSpaceOnUse"
   x1="440.14551"
   y1="132.0332"
   x2="440.14551"
   y2="92.573196"
   gradientTransform="matrix(0.52910053,0,0,0.52910053,-5.9383543e-7,0)" /><linearGradient
   inkscape:collect="always"
   xlink:href="#SVGID_8_"
   id="linearGradient4342"
   gradientUnits="userSpaceOnUse"
   x1="471.04691"
   y1="132.0332"
   x2="471.04691"
   y2="92.573196"
   gradientTransform="matrix(0.52910053,0,0,0.52910053,-5.9383543e-7,0)" /><linearGradient
   inkscape:collect="always"
   xlink:href="#SVGID_9_"
   id="linearGradient4344"
   gradientUnits="userSpaceOnUse"
   x1="500.375"
   y1="132.9326"
   x2="500.375"
   y2="91.670898"
   gradientTransform="matrix(0.52910053,0,0,0.52910053,-5.9383543e-7,0)" /><radialGradient
   inkscape:collect="always"
   xlink:href="#SVGID_10_"
   id="radialGradient4346"
   gradientUnits="userSpaceOnUse"
   gradientTransform="matrix(0.49592593,0.18439153,-0.18439153,0.49592593,-25.528519,-50.450213)"
   cx="204.4937"
   cy="133.54691"
   r="86.903397" /><radialGradient
   inkscape:collect="always"
   xlink:href="#SVGID_11_"
   id="radialGradient4348"
   gradientUnits="userSpaceOnUse"
   gradientTransform="matrix(0.49592593,0.18439153,-0.18439153,0.49592593,-25.528519,-50.450213)"
   cx="204.49409"
   cy="133.5654"
   r="86.922302" /><radialGradient
   inkscape:collect="always"
   xlink:href="#SVGID_12_"
   id="radialGradient4350"
   gradientUnits="userSpaceOnUse"
   gradientTransform="matrix(0.49592593,0.18439153,-0.18439153,0.49592593,-25.528519,-50.450213)"
   cx="204.4966"
   cy="133.5508"
   r="86.900803" /><radialGradient
   inkscape:collect="always"
   xlink:href="#SVGID_13_"
   id="radialGradient4352"
   gradientUnits="userSpaceOnUse"
   gradientTransform="matrix(0.49592593,0.18439153,-0.18439153,0.49592593,-25.528519,-50.450213)"
   cx="204.4946"
   cy="133.5508"
   r="86.904404" /><radialGradient
   inkscape:collect="always"
   xlink:href="#SVGID_14_"
   id="radialGradient4354"
   gradientUnits="userSpaceOnUse"
   gradientTransform="matrix(0.49592593,0.18439153,-0.18439153,0.49592593,-25.528519,-50.450213)"
   cx="204.49319"
   cy="133.5508"
   r="86.907402" /><radialGradient
   inkscape:collect="always"
   xlink:href="#SVGID_15_"
   id="radialGradient4356"
   gradientUnits="userSpaceOnUse"
   gradientTransform="matrix(0.49592593,0.18439153,-0.18439153,0.49592593,-25.528519,-50.450213)"
   cx="204.49319"
   cy="133.55859"
   r="86.915901" /><radialGradient
   inkscape:collect="always"
   xlink:href="#SVGID_16_"
   id="radialGradient4358"
   gradientUnits="userSpaceOnUse"
   gradientTransform="matrix(0.49592593,0.18439153,-0.18439153,0.49592593,-25.528519,-50.450213)"
   cx="204.4976"
   cy="133.5508"
   r="86.8993" /><radialGradient
   inkscape:collect="always"
   xlink:href="#SVGID_17_"
   id="radialGradient4360"
   gradientUnits="userSpaceOnUse"
   gradientTransform="matrix(0.49592593,0.18439153,-0.18439153,0.49592593,-25.528519,-50.450213)"
   cx="204.4922"
   cy="133.5488"
   r="86.907997" /><radialGradient
   inkscape:collect="always"
   xlink:href="#SVGID_18_"
   id="radialGradient4362"
   gradientUnits="userSpaceOnUse"
   gradientTransform="matrix(0.49592593,0.18439153,-0.18439153,0.49592593,-25.528519,-50.450213)"
   cx="204.49609"
   cy="133.5488"
   r="86.911201" /><radialGradient
   inkscape:collect="always"
   xlink:href="#SVGID_19_"
   id="radialGradient4364"
   gradientUnits="userSpaceOnUse"
   gradientTransform="matrix(0.49592593,0.18439153,-0.18439153,0.49592593,-25.528519,-50.450213)"
   cx="204.4922"
   cy="133.5508"
   r="86.906998" /><radialGradient
   inkscape:collect="always"
   xlink:href="#SVGID_20_"
   id="radialGradient4366"
   gradientUnits="userSpaceOnUse"
   gradientTransform="matrix(0.49592593,0.18439153,-0.18439153,0.49592593,-25.528519,-50.450213)"
   cx="204.49271"
   cy="133.5508"
   r="86.9067" /><radialGradient
   inkscape:collect="always"
   xlink:href="#SVGID_21_"
   id="radialGradient4368"
   gradientUnits="userSpaceOnUse"
   gradientTransform="matrix(0.49592593,0.18439153,-0.18439153,0.49592593,-25.528519,-50.450213)"
   cx="204.4883"
   cy="133.5508"
   r="86.900398" /><radialGradient
   inkscape:collect="always"
   xlink:href="#SVGID_22_"
   id="radialGradient4370"
   gradientUnits="userSpaceOnUse"
   gradientTransform="matrix(0.49592593,0.18439153,-0.18439153,0.49592593,-25.528519,-50.450213)"
   cx="204.49271"
   cy="133.5508"
   r="86.906898" /><radialGradient
   inkscape:collect="always"
   xlink:href="#SVGID_23_"
   id="radialGradient4372"
   gradientUnits="userSpaceOnUse"
   gradientTransform="matrix(0.49592593,0.18439153,-0.18439153,0.49592593,-25.528519,-50.450213)"
   cx="204.4922"
   cy="133.5498"
   r="86.905502" /><radialGradient
   inkscape:collect="always"
   xlink:href="#SVGID_24_"
   id="radialGradient4374"
   gradientUnits="userSpaceOnUse"
   gradientTransform="matrix(0.49592593,0.18439153,-0.18439153,0.49592593,-25.528519,-50.450213)"
   cx="204.4937"
   cy="133.5488"
   r="86.909203" /><radialGradient
   inkscape:collect="always"
   xlink:href="#SVGID_25_"
   id="radialGradient4376"
   gradientUnits="userSpaceOnUse"
   gradientTransform="matrix(0.49592593,0.18439153,-0.18439153,0.49592593,-25.528519,-50.450213)"
   cx="204.49319"
   cy="133.5479"
   r="86.9114" /><radialGradient
   inkscape:collect="always"
   xlink:href="#SVGID_26_"
   id="radialGradient4378"
   gradientUnits="userSpaceOnUse"
   gradientTransform="matrix(0.49592593,0.18439153,-0.18439153,0.49592593,-25.528519,-50.450213)"
   cx="204.49319"
   cy="133.5518"
   r="86.908798" /><radialGradient
   inkscape:collect="always"
   xlink:href="#SVGID_27_"
   id="radialGradient4380"
   gradientUnits="userSpaceOnUse"
   gradientTransform="matrix(0.49592593,0.18439153,-0.18439153,0.49592593,-25.528519,-50.450213)"
   cx="204.4946"
   cy="133.5479"
   r="86.903603" /><radialGradient
   inkscape:collect="always"
   xlink:href="#SVGID_28_"
   id="radialGradient4382"
   gradientUnits="userSpaceOnUse"
   gradientTransform="matrix(0.49592593,0.18439153,-0.18439153,0.49592593,-25.528519,-50.450213)"
   cx="204.49409"
   cy="133.5498"
   r="86.908096" /><linearGradient
   inkscape:collect="always"
   xlink:href="#SVGID_29_"
   id="linearGradient4384"
   gradientUnits="userSpaceOnUse"
   gradientTransform="matrix(0.49592593,0.18439153,-0.18439153,0.49592593,-25.528519,-50.450213)"
   x1="153.03371"
   y1="59.556599"
   x2="244.10561"
   y2="131.90359" /></defs>
<linearGradient
   id="SVGID_1_"
   gradientUnits="userSpaceOnUse"
   x1="218.71339"
   y1="84.995102"
   x2="218.71339"
   y2="55.754902">
	<stop
   offset="0"
   style="stop-color:#0061B3"
   id="stop3554" />
	<stop
   offset="0.1373"
   style="stop-color:#0D79C2"
   id="stop3556" />
	<stop
   offset="0.3075"
   style="stop-color:#1A8FD0"
   id="stop3558" />
	<stop
   offset="0.4937"
   style="stop-color:#229FDA"
   id="stop3560" />
	<stop
   offset="0.7057"
   style="stop-color:#27A8E0"
   id="stop3562" />
	<stop
   offset="1"
   style="stop-color:#29ABE2"
   id="stop3564" />
</linearGradient>
<path
   d="m 114.94603,44.970899 -5.97883,-13.01799 v 10.33651 c 0,0.95026 0.10317,1.54338 0.30846,1.77989 0.28095,0.31852 0.72593,0.47672 1.33439,0.47672 h 0.54762 v 0.42434 h -5.38465 v -0.42434 h 0.54761 c 0.65344,0 1.11799,-0.19577 1.39207,-0.59259 0.16719,-0.24233 0.25026,-0.79841 0.25026,-1.66455 v -10.109 c 0,-0.67619 -0.0767,-1.17037 -0.22804,-1.48201 -0.25873,-0.51799 -0.9127,-0.77566 -1.9619,-0.77566 v -0.42275 h 4.38042 l 5.61376,12.10476 5.52116,-12.10476 h 4.38095 v 0.42275 h -0.53545 c -0.66243,0 -1.13121,0.1963 -1.4037,0.59207 -0.16773,0.24444 -0.25185,0.80052 -0.25185,1.66508 v 10.10952 c 0,0.95026 0.10688,1.54339 0.31904,1.77989 0.28254,0.31852 0.72646,0.47672 1.33598,0.47672 h 0.53545 v 0.42434 h -6.57195 v -0.42434 h 0.54761 c 0.66244,0 1.1254,-0.19576 1.39154,-0.59259 0.16719,-0.24233 0.25185,-0.79841 0.25185,-1.66455 v -10.33492 l -5.96508,13.01746 h -0.37672 z"
   id="path3566"
   style="fill:url(#linearGradient4328)"
   inkscape:connector-curvature="0" />
<linearGradient
   id="SVGID_2_"
   gradientUnits="userSpaceOnUse"
   x1="257.58109"
   y1="84.995102"
   x2="257.58109"
   y2="55.754902">
	<stop
   offset="0"
   style="stop-color:#0061B3"
   id="stop3569" />
	<stop
   offset="0.1373"
   style="stop-color:#0D79C2"
   id="stop3571" />
	<stop
   offset="0.3075"
   style="stop-color:#1A8FD0"
   id="stop3573" />
	<stop
   offset="0.4937"
   style="stop-color:#229FDA"
   id="stop3575" />
	<stop
   offset="0.7057"
   style="stop-color:#27A8E0"
   id="stop3577" />
	<stop
   offset="1"
   style="stop-color:#29ABE2"
   id="stop3579" />
</linearGradient>
<path
   d="m 139.04656,29.499999 h 5.39736 v 0.42275 h -0.29789 c -0.62381,0 -1.25926,0.33757 -1.90476,1.01376 -0.27513,0.28995 -0.65873,0.82328 -1.15185,1.59841 l -3.73122,5.8746 v 3.88043 c 0,0.95026 0.10582,1.54338 0.31905,1.77989 0.28942,0.31852 0.7455,0.47672 1.36878,0.47672 h 0.50265 v 0.42434 h -6.57143 v -0.42434 h 0.54709 c 0.65397,0 1.11905,-0.19577 1.39259,-0.59259 0.16614,-0.24233 0.25027,-0.79841 0.25027,-1.66455 v -3.66402 l -4.24339,-6.47884 c -0.46455,-0.70688 -0.75661,-1.12963 -0.87831,-1.26719 -0.2746,-0.28784 -0.69259,-0.56932 -1.25397,-0.84445 -0.16137,-0.0751 -0.38148,-0.11323 -0.66349,-0.11323 v -0.42275 h 6.61746 v 0.42275 h -0.34285 c -0.36455,0 -0.67937,0.0757 -0.94604,0.22699 -0.32804,0.18412 -0.49047,0.44285 -0.49047,0.77672 0,0.2746 0.23174,0.76878 0.69524,1.48307 l 3.22857,4.98571 3.03492,-4.76825 c 0.45661,-0.71641 0.68518,-1.24815 0.68518,-1.59842 0,-0.44814 -0.21375,-0.77143 -0.63915,-0.96984 -0.20582,-0.0905 -0.51376,-0.13545 -0.92487,-0.13545 v -0.42222 z"
   id="path3581"
   style="fill:url(#linearGradient4330)"
   inkscape:connector-curvature="0" />
<path
   d="m 117.42804,64.083069 0.37461,0.10846 -1.32276,5.6672 h -11.9783 v -0.57249 h 0.58095 c 0.65397,0 1.12275,-0.28571 1.4037,-0.8619 0.15926,-0.32751 0.23969,-1.0873 0.23969,-2.27778 v -13.47249 c 0,-1.3037 -0.10741,-2.11957 -0.31958,-2.44814 -0.29683,-0.45186 -0.7381,-0.67619 -1.32381,-0.67619 h -0.58095 v -0.5709 h 7.00476 v 0.57037 c -1.32381,-0.0217 -2.12646,0.35291 -2.40794,1.12328 -0.12116,0.32751 -0.18201,1.11322 -0.18201,2.35397 v 13.1201 c 0,0.86191 0.0609,1.44656 0.18201,1.7545 0.13757,0.3492 0.47513,0.56032 1.01482,0.63227 0.046,0 0.44074,0 1.18677,0 h 1.13016 c 0.96561,0 1.65714,-0.0672 2.07566,-0.20317 0.67619,-0.21217 1.25556,-0.68677 1.73333,-1.41376 0.3963,-0.59418 0.7926,-1.53915 1.18889,-2.83333 z"
   id="path3583"
   inkscape:connector-curvature="0"
   style="fill:#fed9a0" />
<path
   d="m 127.26825,69.286239 v 0.57249 h -6.62857 v -0.57249 h 0.54762 c 0.6381,0 1.10318,-0.25079 1.39207,-0.75238 0.18253,-0.3201 0.2746,-1.10846 0.2746,-2.37248 v -13.48731 c 0,-1.05661 -0.0503,-1.75555 -0.14868,-2.09365 -0.0762,-0.26719 -0.23122,-0.48836 -0.46772,-0.66084 -0.32752,-0.24709 -0.67778,-0.36984 -1.04974,-0.36984 h -0.54762 v -0.5709 h 6.62857 v 0.57037 h -0.55873 c -0.63227,0 -1.09259,0.25079 -1.38042,0.75344 -0.18995,0.32698 -0.28624,1.11957 -0.28624,2.37089 v 13.48731 c 0,1.05661 0.0492,1.75502 0.14762,2.09418 0.20634,0.68889 0.71164,1.03068 1.51904,1.03068 h 0.5582 z"
   id="path3585"
   inkscape:connector-curvature="0"
   style="fill:#fed9a0" />
<path
   d="m 134.36984,50.119049 v 8.20582 h 2.81852 c 0.71587,0 1.22063,-0.24127 1.51746,-0.72328 0.24339,-0.40159 0.41005,-1.11323 0.50106,-2.1418 h 0.42222 v 7.06825 h -0.42222 c -0.0143,-1.3545 -0.29736,-2.23809 -0.84339,-2.64762 -0.26666,-0.18518 -0.6582,-0.27619 -1.17566,-0.27619 h -2.81852 v 6.55767 c 0,1.05662 0.0497,1.75503 0.14921,2.09418 0.0762,0.25715 0.23598,0.47778 0.47883,0.66244 0.32593,0.24497 0.67672,0.36825 1.04974,0.36825 h 0.5582 v 0.57249 h -6.63915 v -0.57249 h 0.54867 c 0.63757,0 1.10212,-0.25079 1.39207,-0.75238 0.18254,-0.3201 0.27249,-1.10846 0.27249,-2.37249 v -13.48783 c 0,-1.05661 -0.0492,-1.75555 -0.14815,-2.09365 -0.0757,-0.25502 -0.23175,-0.47672 -0.4672,-0.66084 -0.3201,-0.24709 -0.66931,-0.36984 -1.04868,-0.36984 h -0.54867 v -0.5709 h 11.51058 l 0.14868,4.58836 h -0.39842 c -0.34338,-1.68413 -0.89418,-2.73016 -1.65502,-3.14286 -0.3873,-0.20423 -0.98466,-0.30529 -1.79101,-0.30529 h -3.41164 z"
   id="path3587"
   inkscape:connector-curvature="0"
   style="fill:#fed9a0" />
<path
   d="m 149.22011,50.119049 v 8.25132 h 3.39947 c 0.88307,0 1.4709,-0.17989 1.76772,-0.53915 0.39577,-0.47196 0.61693,-1.30265 0.66349,-2.4926 h 0.42117 v 7.26667 h -0.42117 c -0.1074,-1.02645 -0.21269,-1.67778 -0.31957,-1.95555 -0.28942,-0.76932 -0.99365,-1.15609 -2.11111,-1.15609 h -3.39948 v 6.8836 c 0,0.71852 0.003,1.11376 0.0111,1.18571 0.046,0.48254 0.18095,0.80476 0.39947,0.9709 0.15132,0.12117 0.44127,0.1836 0.86878,0.1836 h 2.62328 c 0.75238,0 1.3,-0.0508 1.64127,-0.15344 0.53386,-0.16455 1.00212,-0.51799 1.40423,-1.06296 0.4635,-0.62699 0.94709,-1.58519 1.44921,-2.87831 h 0.45661 l -1.33598,5.23598 h -11.92063 v -0.57249 h 0.54709 c 0.3582,0 0.7037,-0.11693 1.03862,-0.35344 0.31111,-0.21534 0.50582,-0.62116 0.58096,-1.21587 0.0307,-0.21587 0.046,-0.72804 0.046,-1.54021 v -13.56455 c 0,-1.33386 -0.0989,-2.15027 -0.29577,-2.44868 -0.26772,-0.40952 -0.72328,-0.61375 -1.36984,-0.61375 h -0.54709 v -0.5709 h 11.92063 l 0.17196,4.57354 h -0.4455 c -0.12857,-0.89312 -0.2582,-1.52381 -0.38783,-1.89418 -0.22064,-0.62698 -0.55503,-1.06243 -1.00318,-1.30899 -0.28148,-0.15397 -0.81851,-0.23069 -1.60899,-0.23069 h -4.24497 z"
   id="path3589"
   inkscape:connector-curvature="0"
   style="fill:#fed9a0" />
<linearGradient
   id="SVGID_3_"
   gradientUnits="userSpaceOnUse"
   x1="316.0928"
   y1="132.9326"
   x2="316.0928"
   y2="91.670898">
	<stop
   offset="0"
   style="stop-color:#0061B3"
   id="stop3592" />
	<stop
   offset="0.0359"
   style="stop-color:#0366B6"
   id="stop3594" />
	<stop
   offset="0.2892"
   style="stop-color:#1384C9"
   id="stop3596" />
	<stop
   offset="0.5379"
   style="stop-color:#1F9AD7"
   id="stop3598" />
	<stop
   offset="0.7781"
   style="stop-color:#27A7DF"
   id="stop3600" />
	<stop
   offset="1"
   style="stop-color:#29ABE2"
   id="stop3602" />
</linearGradient>
<path
   d="m 171.35714,48.503169 v 7.22117 h -0.42275 c -0.2582,-2.59736 -1.00582,-4.35344 -2.24709,-5.26773 -0.65291,-0.48095 -1.33174,-0.72222 -2.03122,-0.72222 -0.7074,0 -1.33121,0.2873 -1.87089,0.86244 -0.5762,0.62592 -0.86614,1.40476 -0.86614,2.34021 0,0.62751 0.16296,1.20476 0.49047,1.73968 0.47937,0.7709 1.60053,1.79682 3.36455,3.07831 1.22487,0.88518 2.009,1.48359 2.35133,1.80264 0.87354,0.79947 1.48571,1.66349 1.8365,2.58677 0.28149,0.76032 0.42276,1.55503 0.42276,2.38731 0,1.73386 -0.5,3.15449 -1.49683,4.2656 -0.93386,1.02487 -2.0582,1.53757 -3.37566,1.53757 -0.44074,0 -0.86402,-0.0455 -1.26614,-0.13704 -0.2291,-0.0534 -0.72275,-0.25238 -1.48413,-0.6 -0.66984,-0.29841 -1.13121,-0.44709 -1.38994,-0.44709 -0.38201,0 -0.61376,0.39418 -0.69736,1.1836 h -0.42169 v -7.1582 h 0.42169 c 0.17461,1.34497 0.4,2.36085 0.67355,3.04868 0.35767,0.91217 0.91323,1.63598 1.66508,2.17037 0.68412,0.49259 1.43756,0.73968 2.25926,0.73968 0.82116,0 1.52434,-0.28783 2.11058,-0.86243 0.64603,-0.62593 0.96984,-1.47672 0.96984,-2.55556 0,-1.12857 -0.43122,-2.13545 -1.28995,-3.01746 -0.52381,-0.54497 -1.39312,-1.2619 -2.60688,-2.14868 -1.21269,-0.88836 -2.09259,-1.62539 -2.64127,-2.20952 -1.14021,-1.21111 -1.71058,-2.6582 -1.71058,-4.34233 0,-1.62063 0.46085,-2.95555 1.38148,-4.00317 0.87408,-0.9963 1.92381,-1.4926 3.14868,-1.4926 0.82857,0 1.70053,0.27143 2.61164,0.81535 0.43281,0.25714 0.73386,0.38465 0.90106,0.38465 0.39524,0 0.65767,-0.4 0.78677,-1.2 h 0.42328 z"
   id="path3604"
   style="fill:url(#linearGradient4332)"
   inkscape:connector-curvature="0" />
<linearGradient
   id="SVGID_4_"
   gradientUnits="userSpaceOnUse"
   x1="343.35739"
   y1="132.0332"
   x2="343.35739"
   y2="92.573196">
	<stop
   offset="0"
   style="stop-color:#0061B3"
   id="stop3607" />
	<stop
   offset="0.0359"
   style="stop-color:#0366B6"
   id="stop3609" />
	<stop
   offset="0.2892"
   style="stop-color:#1384C9"
   id="stop3611" />
	<stop
   offset="0.5379"
   style="stop-color:#1F9AD7"
   id="stop3613" />
	<stop
   offset="0.7781"
   style="stop-color:#27A7DF"
   id="stop3615" />
	<stop
   offset="1"
   style="stop-color:#29ABE2"
   id="stop3617" />
</linearGradient>
<path
   d="m 180.18307,60.079889 v 6.08307 c 0,1.30424 0.10529,2.11958 0.31905,2.44762 0.29629,0.45185 0.73545,0.67831 1.31322,0.67831 h 0.59313 v 0.56984 h -6.63016 v -0.56984 h 0.58254 c 0.65291,0 1.12275,-0.28836 1.40423,-0.86191 0.15079,-0.31957 0.22804,-1.07301 0.22804,-2.26402 v -13.48783 c 0,-1.31428 -0.10264,-2.12963 -0.30846,-2.44656 -0.29789,-0.45185 -0.73757,-0.67725 -1.32381,-0.67725 h -0.58254 v -0.57037 h 5.67195 c 1.20794,0 2.17408,0.1381 2.8963,0.41535 0.98095,0.38042 1.78042,1.08359 2.39524,2.10952 0.54868,0.9127 0.82222,1.99524 0.82222,3.24815 0,1.85873 -0.46032,3.3 -1.38042,4.32698 -0.85926,0.9545 -1.99207,1.43281 -3.39947,1.43281 -0.74551,-5.3e-4 -1.61217,-0.14445 -2.60106,-0.43387 z m 0,-0.87672 c 0.80476,0.20635 1.42963,0.309 1.87037,0.309 0.87354,0 1.58466,-0.45767 2.13386,-1.3709 0.51746,-0.85185 0.77513,-1.87725 0.77513,-3.07831 0,-2.03386 -0.52486,-3.45397 -1.57407,-4.26613 -0.50159,-0.37937 -1.07196,-0.56826 -1.71164,-0.56826 -0.3873,0 -0.88519,0.0968 -1.49365,0.28995 v 8.68465 z"
   id="path3619"
   style="fill:url(#linearGradient4334)"
   inkscape:connector-curvature="0" />
<linearGradient
   id="SVGID_5_"
   gradientUnits="userSpaceOnUse"
   x1="375.2305"
   y1="132.0332"
   x2="375.2305"
   y2="92.573196">
	<stop
   offset="0"
   style="stop-color:#0061B3"
   id="stop3622" />
	<stop
   offset="0.0359"
   style="stop-color:#0366B6"
   id="stop3624" />
	<stop
   offset="0.2892"
   style="stop-color:#1384C9"
   id="stop3626" />
	<stop
   offset="0.5379"
   style="stop-color:#1F9AD7"
   id="stop3628" />
	<stop
   offset="0.7781"
   style="stop-color:#27A7DF"
   id="stop3630" />
	<stop
   offset="1"
   style="stop-color:#29ABE2"
   id="stop3632" />
</linearGradient>
<path
   d="m 194.94074,58.662959 h 7.1873 v -5.97354 c 0,-1.0672 -0.0497,-1.76984 -0.14709,-2.10794 -0.20635,-0.68783 -0.71164,-1.03016 -1.51799,-1.03016 h -0.5492 v -0.57037 h 6.61957 v 0.57037 h -0.5492 c -0.35715,0 -0.69789,0.1127 -1.02011,0.33704 -0.32328,0.22698 -0.52487,0.64021 -0.6,1.24656 -0.0307,0.21482 -0.0466,0.73545 -0.0466,1.5545 v 13.47354 c 0,1.05662 0.0508,1.7545 0.14868,2.09524 0.0757,0.26508 0.23227,0.48783 0.46878,0.65926 0.32804,0.24762 0.67566,0.37143 1.04868,0.37143 h 0.5492 v 0.56984 h -6.61957 v -0.56984 h 0.5492 c 0.63016,0 1.09101,-0.25132 1.37884,-0.75503 0.19153,-0.32751 0.28624,-1.11852 0.28624,-2.3709 v -6.3582 h -7.1873 v 6.3582 c 0,1.05662 0.0492,1.7545 0.14656,2.09524 0.20635,0.68677 0.71376,1.03069 1.51905,1.03069 h 0.5582 v 0.56984 h -6.62857 v -0.56984 h 0.54921 c 0.63915,0 1.10211,-0.25132 1.391,-0.75503 0.18254,-0.31957 0.2746,-1.1074 0.2746,-2.3709 v -13.47354 c 0,-1.0672 -0.0508,-1.76984 -0.1492,-2.10794 -0.0772,-0.26508 -0.23228,-0.4873 -0.46773,-0.6619 -0.32645,-0.24656 -0.67619,-0.36826 -1.04814,-0.36826 h -0.54921 v -0.57037 h 6.62857 v 0.57037 h -0.5582 c -0.35873,0 -0.69841,0.1127 -1.02275,0.33704 -0.32117,0.22698 -0.5217,0.64021 -0.59789,1.24656 -0.0317,0.23651 -0.0455,0.75556 -0.0455,1.5545 v 5.97354 z"
   id="path3634"
   style="fill:url(#linearGradient4336)"
   inkscape:connector-curvature="0" />
<linearGradient
   id="SVGID_6_"
   gradientUnits="userSpaceOnUse"
   x1="407.99609"
   y1="132.0332"
   x2="407.99609"
   y2="92.573196">
	<stop
   offset="0"
   style="stop-color:#0061B3"
   id="stop3637" />
	<stop
   offset="0.0359"
   style="stop-color:#0366B6"
   id="stop3639" />
	<stop
   offset="0.2892"
   style="stop-color:#1384C9"
   id="stop3641" />
	<stop
   offset="0.5379"
   style="stop-color:#1F9AD7"
   id="stop3643" />
	<stop
   offset="0.7781"
   style="stop-color:#27A7DF"
   id="stop3645" />
	<stop
   offset="1"
   style="stop-color:#29ABE2"
   id="stop3647" />
</linearGradient>
<path
   d="m 213.64603,50.120109 v 8.25238 h 3.39947 c 0.88148,0 1.47143,-0.17937 1.76931,-0.53916 0.39313,-0.47248 0.61535,-1.3037 0.66085,-2.49418 h 0.42222 v 7.26826 h -0.42222 c -0.10582,-1.02752 -0.21217,-1.67937 -0.31958,-1.95767 -0.28783,-0.76826 -0.99153,-1.15556 -2.11005,-1.15556 h -3.39947 v 6.8836 c 0,0.71852 0.004,1.11481 0.0111,1.18518 0.046,0.48466 0.17884,0.80582 0.4,0.9709 0.15185,0.12275 0.44074,0.18519 0.86667,0.18519 h 2.62328 c 0.75397,0 1.30053,-0.0513 1.64391,-0.1545 0.53069,-0.16349 0.99948,-0.51693 1.40265,-1.06138 0.46349,-0.62857 0.9455,-1.5873 1.44974,-2.87936 h 0.45502 l -1.33545,5.23545 h -11.92116 v -0.56984 h 0.54762 c 0.35714,0 0.7037,-0.11852 1.03756,-0.35503 0.31376,-0.21481 0.50635,-0.62063 0.58413,-1.21534 0.0286,-0.21535 0.0444,-0.72857 0.0444,-1.54074 v -13.56402 c 0,-1.33492 -0.0995,-2.15133 -0.29629,-2.45027 -0.26614,-0.40899 -0.72222,-0.61323 -1.36984,-0.61323 h -0.54762 v -0.57037 h 11.92116 l 0.17037,4.57143 h -0.44444 c -0.12752,-0.89206 -0.25714,-1.52328 -0.38783,-1.89365 -0.22011,-0.6254 -0.5545,-1.06137 -1.00318,-1.30688 -0.27936,-0.15608 -0.81693,-0.23174 -1.6074,-0.23174 h -4.24498 z"
   id="path3649"
   style="fill:url(#linearGradient4338)"
   inkscape:connector-curvature="0" />
<linearGradient
   id="SVGID_7_"
   gradientUnits="userSpaceOnUse"
   x1="440.14551"
   y1="132.0332"
   x2="440.14551"
   y2="92.573196">
	<stop
   offset="0"
   style="stop-color:#0061B3"
   id="stop3652" />
	<stop
   offset="0.0359"
   style="stop-color:#0366B6"
   id="stop3654" />
	<stop
   offset="0.2892"
   style="stop-color:#1384C9"
   id="stop3656" />
	<stop
   offset="0.5379"
   style="stop-color:#1F9AD7"
   id="stop3658" />
	<stop
   offset="0.7781"
   style="stop-color:#27A7DF"
   id="stop3660" />
	<stop
   offset="1"
   style="stop-color:#29ABE2"
   id="stop3662" />
</linearGradient>
<path
   d="m 240.57566,69.858729 h -4.12857 l -5.23757,-9.76296 c -0.3873,0.0212 -0.70317,0.0317 -0.94814,0.0317 -0.20424,0 -0.42805,-0.0106 -0.67196,-0.0317 v 6.06719 c 0,1.30424 0.10688,2.11958 0.32063,2.44762 0.29471,0.45185 0.73016,0.67831 1.29894,0.67831 h 0.60635 v 0.56984 h -6.62804 v -0.56984 h 0.58201 c 0.65291,0 1.12117,-0.28836 1.40265,-0.86191 0.15926,-0.3291 0.23915,-1.08412 0.23915,-2.26402 v -13.48783 c 0,-1.31428 -0.10529,-2.12963 -0.31958,-2.44656 -0.2947,-0.45185 -0.73809,-0.67725 -1.32222,-0.67725 h -0.58201 v -0.57037 h 5.63439 c 1.37778,0 2.39207,0.091 3.04762,0.27672 1.08625,0.31852 1.9455,0.9799 2.57778,1.98572 0.54021,0.87248 0.80899,1.90952 0.80899,3.10899 0,2.80318 -1.26931,4.58572 -3.81058,5.34392 l 3.19471,5.98994 c 0.6455,1.22064 1.19418,2.05291 1.64286,2.49365 0.59365,0.60477 1.35714,0.97672 2.29206,1.10953 v 0.56931 z m -10.98624,-10.73227 c 0.0693,0 0.17513,0 0.32063,0 0.14392,0.01 0.25027,0.0153 0.31905,0.0153 1.23968,0 2.25503,-0.33863 3.04709,-1.01693 0.94074,-0.79947 1.41376,-1.99048 1.41376,-3.5709 0,-1.32487 -0.30371,-2.39048 -0.9127,-3.19365 -0.60953,-0.80741 -1.40688,-1.21058 -2.3963,-1.21058 -0.44127,0 -1.03862,0.0989 -1.79153,0.29259 v 8.68413 z"
   id="path3664"
   style="fill:url(#linearGradient4340)"
   inkscape:connector-curvature="0" />
<linearGradient
   id="SVGID_8_"
   gradientUnits="userSpaceOnUse"
   x1="471.04691"
   y1="132.0332"
   x2="471.04691"
   y2="92.573196">
	<stop
   offset="0"
   style="stop-color:#0061B3"
   id="stop3667" />
	<stop
   offset="0.0359"
   style="stop-color:#0366B6"
   id="stop3669" />
	<stop
   offset="0.2892"
   style="stop-color:#1384C9"
   id="stop3671" />
	<stop
   offset="0.5379"
   style="stop-color:#1F9AD7"
   id="stop3673" />
	<stop
   offset="0.7781"
   style="stop-color:#27A7DF"
   id="stop3675" />
	<stop
   offset="1"
   style="stop-color:#29ABE2"
   id="stop3677" />
</linearGradient>
<path
   d="m 247.00582,50.120109 v 8.25238 h 3.40053 c 0.88254,0 1.47143,-0.17937 1.76772,-0.53916 0.39577,-0.47248 0.61694,-1.3037 0.66244,-2.49418 h 0.42116 v 7.26826 h -0.42116 c -0.10741,-1.02752 -0.2127,-1.67937 -0.31958,-1.95767 -0.28995,-0.76826 -0.99259,-1.15556 -2.11005,-1.15556 h -3.40053 v 6.8836 c 0,0.71852 0.004,1.11481 0.0116,1.18518 0.046,0.48466 0.17936,0.80582 0.39947,0.9709 0.15238,0.12275 0.44127,0.18519 0.86773,0.18519 h 2.62328 c 0.75185,0 1.30158,-0.0513 1.64232,-0.1545 0.53281,-0.16349 1.00159,-0.51693 1.40265,-1.06138 0.46508,-0.62857 0.94868,-1.5873 1.44973,-2.87936 h 0.45662 l -1.33439,5.23545 h -11.92223 v -0.56984 h 0.54709 c 0.35821,0 0.70265,-0.11852 1.03916,-0.35503 0.31111,-0.21481 0.50476,-0.62063 0.58148,-1.21534 0.0307,-0.21535 0.0471,-0.72857 0.0471,-1.54074 v -13.56402 c 0,-1.33492 -0.10053,-2.15133 -0.29788,-2.45027 -0.26614,-0.40899 -0.72276,-0.61323 -1.36932,-0.61323 h -0.54709 v -0.57037 h 11.92223 l 0.16984,4.57143 h -0.44339 c -0.13069,-0.89206 -0.25979,-1.52328 -0.38783,-1.89365 -0.22011,-0.6254 -0.55608,-1.06137 -1.00529,-1.30688 -0.28042,-0.15608 -0.8164,-0.23174 -1.60847,-0.23174 h -4.24497 z"
   id="path3679"
   style="fill:url(#linearGradient4342)"
   inkscape:connector-curvature="0" />
<linearGradient
   id="SVGID_9_"
   gradientUnits="userSpaceOnUse"
   x1="500.375"
   y1="132.9326"
   x2="500.375"
   y2="91.670898">
	<stop
   offset="0"
   style="stop-color:#0061B3"
   id="stop3682" />
	<stop
   offset="0.0359"
   style="stop-color:#0366B6"
   id="stop3684" />
	<stop
   offset="0.2892"
   style="stop-color:#1384C9"
   id="stop3686" />
	<stop
   offset="0.5379"
   style="stop-color:#1F9AD7"
   id="stop3688" />
	<stop
   offset="0.7781"
   style="stop-color:#27A7DF"
   id="stop3690" />
	<stop
   offset="1"
   style="stop-color:#29ABE2"
   id="stop3692" />
</linearGradient>
<path
   d="m 268.86032,48.503169 v 7.22117 h -0.42222 c -0.25873,-2.59736 -1.00741,-4.35344 -2.24815,-5.26773 -0.65185,-0.48095 -1.33016,-0.72222 -2.0291,-0.72222 -0.70741,0 -1.33228,0.2873 -1.87196,0.86244 -0.57884,0.62592 -0.86773,1.40476 -0.86773,2.34021 0,0.62751 0.16508,1.20476 0.49207,1.73968 0.47778,0.7709 1.59947,1.79682 3.36402,3.07831 1.22592,0.88518 2.00794,1.48359 2.35132,1.80264 0.87302,0.79947 1.48624,1.66349 1.83757,2.58677 0.28095,0.76032 0.42222,1.55503 0.42222,2.38731 0,1.73386 -0.49894,3.15449 -1.4963,4.2656 -0.93439,1.02487 -2.06137,1.53757 -3.37672,1.53757 -0.44127,0 -0.86243,-0.0455 -1.26666,-0.13704 -0.22805,-0.0534 -0.72117,-0.25238 -1.48307,-0.6 -0.66878,-0.29841 -1.13281,-0.44709 -1.39154,-0.44709 -0.38042,0 -0.61375,0.39418 -0.69735,1.1836 h -0.42011 v -7.1582 h 0.42011 c 0.17672,1.34497 0.40212,2.36085 0.67354,3.04868 0.35873,0.91217 0.91429,1.63598 1.66561,2.17037 0.68572,0.49259 1.43757,0.73968 2.25873,0.73968 0.82117,0 1.52646,-0.28783 2.11217,-0.86243 0.64498,-0.62593 0.96826,-1.47672 0.96826,-2.55556 0,-1.12857 -0.42963,-2.13545 -1.28783,-3.01746 -0.52699,-0.54497 -1.39471,-1.2619 -2.60688,-2.14868 -1.21376,-0.88836 -2.09524,-1.62539 -2.6418,-2.20952 -1.14233,-1.21111 -1.71058,-2.6582 -1.71058,-4.34233 0,-1.62063 0.45926,-2.95555 1.37936,-4.00317 0.87408,-0.9963 1.92434,-1.4926 3.14868,-1.4926 0.82857,0 1.7,0.27143 2.61323,0.81535 0.43333,0.25714 0.73227,0.38465 0.90105,0.38465 0.39418,0 0.65662,-0.4 0.78625,-1.2 h 0.42381 z"
   id="path3694"
   style="fill:url(#linearGradient4344)"
   inkscape:connector-curvature="0" />
<radialGradient
   id="SVGID_10_"
   cx="204.4937"
   cy="133.54691"
   r="86.903397"
   gradientTransform="matrix(0.9373,0.3485,-0.3485,0.9373,-48.2489,-95.3509)"
   gradientUnits="userSpaceOnUse">
	<stop
   offset="0"
   style="stop-color:#71CFEB"
   id="stop3697" />
	<stop
   offset="0.4364"
   style="stop-color:#38ACDE"
   id="stop3699" />
	<stop
   offset="0.6"
   style="stop-color:#229ED9"
   id="stop3701" />
	<stop
   offset="0.666"
   style="stop-color:#2299D4"
   id="stop3703" />
	<stop
   offset="0.7428"
   style="stop-color:#218BC6"
   id="stop3705" />
	<stop
   offset="0.825"
   style="stop-color:#1F74AF"
   id="stop3707" />
	<stop
   offset="0.9109"
   style="stop-color:#1E548E"
   id="stop3709" />
	<stop
   offset="0.999"
   style="stop-color:#1B2B65"
   id="stop3711" />
	<stop
   offset="1"
   style="stop-color:#1B2B64"
   id="stop3713" />
</radialGradient>
<path
   d="m 34.966667,23.803699 c 0.264021,0.0979 0.486772,0.25344 0.670899,0.4418 5.380953,-6.31058 12.473545,-10.85555 20.29418,-13.164019 -1.306878,-0.725924 -2.67037,-1.382009 -4.078307,-1.972485 -4.332804,0.281481 -8.627513,1.337566 -12.702645,3.184655 -4.232275,1.916929 -7.975133,4.566669 -11.11217,7.792059 1.536508,1.45768 3.205291,2.84286 4.99418,4.13651 0.494709,-0.48571 1.24127,-0.67566 1.933863,-0.41852 z"
   id="path3715"
   style="fill:url(#radialGradient4346)"
   inkscape:connector-curvature="0" />
<radialGradient
   id="SVGID_11_"
   cx="204.49409"
   cy="133.5654"
   r="86.922302"
   gradientTransform="matrix(0.9373,0.3485,-0.3485,0.9373,-48.2489,-95.3509)"
   gradientUnits="userSpaceOnUse">
	<stop
   offset="0"
   style="stop-color:#71CFEB"
   id="stop3718" />
	<stop
   offset="0.4364"
   style="stop-color:#38ACDE"
   id="stop3720" />
	<stop
   offset="0.6"
   style="stop-color:#229ED9"
   id="stop3722" />
	<stop
   offset="0.666"
   style="stop-color:#2299D4"
   id="stop3724" />
	<stop
   offset="0.7428"
   style="stop-color:#218BC6"
   id="stop3726" />
	<stop
   offset="0.825"
   style="stop-color:#1F74AF"
   id="stop3728" />
	<stop
   offset="0.9109"
   style="stop-color:#1E548E"
   id="stop3730" />
	<stop
   offset="0.999"
   style="stop-color:#1B2B65"
   id="stop3732" />
	<stop
   offset="1"
   style="stop-color:#1B2B64"
   id="stop3734" />
</radialGradient>
<path
   d="m 61.685185,9.815344 c -2.401587,-0.511111 -4.833862,-0.769312 -7.26455,-0.785185 1.042857,0.506878 2.051852,1.059788 3.036508,1.641799 1.391534,-0.356085 2.801587,-0.643916 4.228042,-0.856614 z"
   id="path3736"
   style="fill:url(#radialGradient4348)"
   inkscape:connector-curvature="0" />
<radialGradient
   id="SVGID_12_"
   cx="204.4966"
   cy="133.5508"
   r="86.900803"
   gradientTransform="matrix(0.9373,0.3485,-0.3485,0.9373,-48.2489,-95.3509)"
   gradientUnits="userSpaceOnUse">
	<stop
   offset="0"
   style="stop-color:#71CFEB"
   id="stop3739" />
	<stop
   offset="0.4364"
   style="stop-color:#38ACDE"
   id="stop3741" />
	<stop
   offset="0.6"
   style="stop-color:#229ED9"
   id="stop3743" />
	<stop
   offset="0.666"
   style="stop-color:#2299D4"
   id="stop3745" />
	<stop
   offset="0.7428"
   style="stop-color:#218BC6"
   id="stop3747" />
	<stop
   offset="0.825"
   style="stop-color:#1F74AF"
   id="stop3749" />
	<stop
   offset="0.9109"
   style="stop-color:#1E548E"
   id="stop3751" />
	<stop
   offset="0.999"
   style="stop-color:#1B2B65"
   id="stop3753" />
	<stop
   offset="1"
   style="stop-color:#1B2B64"
   id="stop3755" />
</radialGradient>
<path
   d="m 79.403175,55.457139 c 1.763492,3.73228 3.034391,7.74709 3.755555,11.93651 2.134921,-2.81376 3.850794,-5.91958 5.104233,-9.28942 0.987302,-2.65502 1.631746,-5.35291 1.978836,-8.0492 -3.148148,1.87195 -6.606878,3.31322 -10.26455,4.29894 -0.02275,0.10635 -0.04339,0.2127 -0.08254,0.31746 -0.11164,0.30159 -0.282011,0.56561 -0.491534,0.78571 z"
   id="path3757"
   style="fill:url(#radialGradient4350)"
   inkscape:connector-curvature="0" />
<radialGradient
   id="SVGID_13_"
   cx="204.4946"
   cy="133.5508"
   r="86.904404"
   gradientTransform="matrix(0.9373,0.3485,-0.3485,0.9373,-48.2489,-95.3509)"
   gradientUnits="userSpaceOnUse">
	<stop
   offset="0"
   style="stop-color:#71CFEB"
   id="stop3760" />
	<stop
   offset="0.4364"
   style="stop-color:#38ACDE"
   id="stop3762" />
	<stop
   offset="0.6"
   style="stop-color:#229ED9"
   id="stop3764" />
	<stop
   offset="0.666"
   style="stop-color:#2299D4"
   id="stop3766" />
	<stop
   offset="0.7428"
   style="stop-color:#218BC6"
   id="stop3768" />
	<stop
   offset="0.825"
   style="stop-color:#1F74AF"
   id="stop3770" />
	<stop
   offset="0.9109"
   style="stop-color:#1E548E"
   id="stop3772" />
	<stop
   offset="0.999"
   style="stop-color:#1B2B65"
   id="stop3774" />
	<stop
   offset="1"
   style="stop-color:#1B2B64"
   id="stop3776" />
</radialGradient>
<path
   d="m 77.225397,56.102649 c -0.41746,1.91481 -0.95873,3.82486 -1.661376,5.71481 -2.23492,6.00952 -5.704762,11.20529 -10.00582,15.42116 2.146561,-0.79153 4.255027,-1.71058 6.334392,-2.61851 2.59947,-1.13704 5.058201,-2.21059 7.552381,-3.03016 0.288359,-0.27937 0.571428,-0.56508 0.851322,-0.85291 0.856614,-0.88201 1.662963,-1.80265 2.420106,-2.75979 -0.692592,-4.27302 -1.962963,-8.37143 -3.748677,-12.17249 -0.507408,0.3217 -1.128572,0.43968 -1.742328,0.29789 z"
   id="path3778"
   style="fill:url(#radialGradient4352)"
   inkscape:connector-curvature="0" />
<radialGradient
   id="SVGID_14_"
   cx="204.49319"
   cy="133.5508"
   r="86.907402"
   gradientTransform="matrix(0.9373,0.3485,-0.3485,0.9373,-48.2489,-95.3509)"
   gradientUnits="userSpaceOnUse">
	<stop
   offset="0"
   style="stop-color:#71CFEB"
   id="stop3781" />
	<stop
   offset="0.4364"
   style="stop-color:#38ACDE"
   id="stop3783" />
	<stop
   offset="0.6"
   style="stop-color:#229ED9"
   id="stop3785" />
	<stop
   offset="0.666"
   style="stop-color:#2299D4"
   id="stop3787" />
	<stop
   offset="0.7428"
   style="stop-color:#218BC6"
   id="stop3789" />
	<stop
   offset="0.825"
   style="stop-color:#1F74AF"
   id="stop3791" />
	<stop
   offset="0.9109"
   style="stop-color:#1E548E"
   id="stop3793" />
	<stop
   offset="0.999"
   style="stop-color:#1B2B65"
   id="stop3795" />
	<stop
   offset="1"
   style="stop-color:#1B2B64"
   id="stop3797" />
</radialGradient>
<path
   d="m 52.14709,53.095769 c -0.02063,0.0773 -0.03175,0.15502 -0.05979,0.23174 -0.21217,0.56932 -0.616403,1.00424 -1.105821,1.28148 0.540741,3.71852 1.586773,7.33493 3.091006,10.74815 0.772487,-0.13862 1.572487,-0.26666 2.420635,-0.37407 1.686243,-0.21429 3.270899,-0.0508 4.710582,0.48465 3.401058,1.26508 5.071957,4.23916 4.500529,6.2254 -0.142857,0.49365 -0.373016,0.96455 -0.68254,1.4 -0.800529,1.12011 -2.157672,2.02804 -4.256614,2.81217 0.674074,0.7709 1.386244,1.51111 2.117461,2.23386 0.02328,-0.007 0.04497,-0.0127 0.06773,-0.0196 5.033333,-4.36932 9.074603,-10.01905 11.557142,-16.69471 0.719048,-1.93492 1.273016,-3.88995 1.687831,-5.8508 -0.106878,-0.0968 -0.201058,-0.20158 -0.286772,-0.31481 -7.557143,1.28413 -15.757143,0.66984 -23.761376,-2.16349 z"
   id="path3799"
   style="fill:url(#radialGradient4354)"
   inkscape:connector-curvature="0" />
<radialGradient
   id="SVGID_15_"
   cx="204.49319"
   cy="133.55859"
   r="86.915901"
   gradientTransform="matrix(0.9373,0.3485,-0.3485,0.9373,-48.2489,-95.3509)"
   gradientUnits="userSpaceOnUse">
	<stop
   offset="0"
   style="stop-color:#71CFEB"
   id="stop3802" />
	<stop
   offset="0.4364"
   style="stop-color:#38ACDE"
   id="stop3804" />
	<stop
   offset="0.6"
   style="stop-color:#229ED9"
   id="stop3806" />
	<stop
   offset="0.666"
   style="stop-color:#2299D4"
   id="stop3808" />
	<stop
   offset="0.7428"
   style="stop-color:#218BC6"
   id="stop3810" />
	<stop
   offset="0.825"
   style="stop-color:#1F74AF"
   id="stop3812" />
	<stop
   offset="0.9109"
   style="stop-color:#1E548E"
   id="stop3814" />
	<stop
   offset="0.999"
   style="stop-color:#1B2B65"
   id="stop3816" />
	<stop
   offset="1"
   style="stop-color:#1B2B64"
   id="stop3818" />
</radialGradient>
<path
   d="m 65.378836,15.706879 c 1.425397,-1.13228 2.913227,-2.17355 4.465079,-3.111109 -0.975132,-0.46508 -1.973545,-0.89789 -3.004762,-1.28148 -0.697883,-0.25926 -1.402116,-0.488364 -2.108465,-0.703708 -1.999471,0.155556 -3.976191,0.455028 -5.916402,0.894708 1.807936,1.16402 3.502645,2.457669 5.085714,3.856609 0.319577,-0.0772 0.66455,-0.0635 0.996296,0.0598 0.183069,0.0677 0.340212,0.16826 0.48254,0.28519 z"
   id="path3820"
   style="fill:url(#radialGradient4356)"
   inkscape:connector-curvature="0" />
<radialGradient
   id="SVGID_16_"
   cx="204.4976"
   cy="133.5508"
   r="86.8993"
   gradientTransform="matrix(0.9373,0.3485,-0.3485,0.9373,-48.2489,-95.3509)"
   gradientUnits="userSpaceOnUse">
	<stop
   offset="0"
   style="stop-color:#71CFEB"
   id="stop3823" />
	<stop
   offset="0.4364"
   style="stop-color:#38ACDE"
   id="stop3825" />
	<stop
   offset="0.6"
   style="stop-color:#229ED9"
   id="stop3827" />
	<stop
   offset="0.666"
   style="stop-color:#2299D4"
   id="stop3829" />
	<stop
   offset="0.7428"
   style="stop-color:#218BC6"
   id="stop3831" />
	<stop
   offset="0.825"
   style="stop-color:#1F74AF"
   id="stop3833" />
	<stop
   offset="0.9109"
   style="stop-color:#1E548E"
   id="stop3835" />
	<stop
   offset="0.999"
   style="stop-color:#1B2B65"
   id="stop3837" />
	<stop
   offset="1"
   style="stop-color:#1B2B64"
   id="stop3839" />
</radialGradient>
<path
   d="m 76.647619,35.748679 c 1.418519,5.0783 1.898413,10.44709 1.320635,15.83809 0.191005,0.0196 0.382011,0.055 0.570899,0.12487 0.720635,0.26878 1.222752,0.86138 1.412699,1.55026 3.742857,-1.04603 7.266667,-2.58253 10.44127,-4.58465 0.62328,-6.94815 -0.785715,-13.83175 -3.884127,-19.86984 -2.514815,1.75291 -5.380424,3.16137 -8.495767,4.20793 0.091,0.43969 0.06984,0.90794 -0.09841,1.35926 -0.234921,0.63228 -0.701587,1.10953 -1.267196,1.37408 z"
   id="path3841"
   style="fill:url(#radialGradient4358)"
   inkscape:connector-curvature="0" />
<radialGradient
   id="SVGID_17_"
   cx="204.4922"
   cy="133.5488"
   r="86.907997"
   gradientTransform="matrix(0.9373,0.3485,-0.3485,0.9373,-48.2489,-95.3509)"
   gradientUnits="userSpaceOnUse">
	<stop
   offset="0"
   style="stop-color:#71CFEB"
   id="stop3844" />
	<stop
   offset="0.4364"
   style="stop-color:#38ACDE"
   id="stop3846" />
	<stop
   offset="0.6"
   style="stop-color:#229ED9"
   id="stop3848" />
	<stop
   offset="0.666"
   style="stop-color:#2299D4"
   id="stop3850" />
	<stop
   offset="0.7428"
   style="stop-color:#218BC6"
   id="stop3852" />
	<stop
   offset="0.825"
   style="stop-color:#1F74AF"
   id="stop3854" />
	<stop
   offset="0.9109"
   style="stop-color:#1E548E"
   id="stop3856" />
	<stop
   offset="0.999"
   style="stop-color:#1B2B65"
   id="stop3858" />
	<stop
   offset="1"
   style="stop-color:#1B2B64"
   id="stop3860" />
</radialGradient>
<path
   d="m 18.017989,41.262959 c -0.941799,8.29524 0.982011,16.79312 5.595768,23.93281 1.310582,-0.41482 2.621164,-0.66191 3.920105,-0.79312 -2.754497,-8.6836 -2.755026,-18.30688 0.658731,-27.48625 0.1,-0.26878 0.210582,-0.52804 0.31746,-0.79153 -0.175661,-0.13334 -0.31746,-0.29841 -0.420635,-0.48677 -3.538624,1.41534 -6.925926,3.30264 -10.071429,5.62486 z"
   id="path3862"
   style="fill:url(#radialGradient4360)"
   inkscape:connector-curvature="0" />
<radialGradient
   id="SVGID_18_"
   cx="204.49609"
   cy="133.5488"
   r="86.911201"
   gradientTransform="matrix(0.9373,0.3485,-0.3485,0.9373,-48.2489,-95.3509)"
   gradientUnits="userSpaceOnUse">
	<stop
   offset="0"
   style="stop-color:#71CFEB"
   id="stop3865" />
	<stop
   offset="0.4364"
   style="stop-color:#38ACDE"
   id="stop3867" />
	<stop
   offset="0.6"
   style="stop-color:#229ED9"
   id="stop3869" />
	<stop
   offset="0.666"
   style="stop-color:#2299D4"
   id="stop3871" />
	<stop
   offset="0.7428"
   style="stop-color:#218BC6"
   id="stop3873" />
	<stop
   offset="0.825"
   style="stop-color:#1F74AF"
   id="stop3875" />
	<stop
   offset="0.9109"
   style="stop-color:#1E548E"
   id="stop3877" />
	<stop
   offset="0.999"
   style="stop-color:#1B2B65"
   id="stop3879" />
	<stop
   offset="1"
   style="stop-color:#1B2B64"
   id="stop3881" />
</radialGradient>
<path
   d="m 28.051852,34.219579 c -1.786773,-2.81905 -3.21799,-5.79736 -4.244445,-8.87302 -1.510053,2.28836 -2.778306,4.75873 -3.757672,7.39312 -0.942857,2.53598 -1.584656,5.14762 -1.939153,7.7836 3.072487,-2.22063 6.368783,-4.03227 9.804233,-5.40635 -0.03757,-0.25132 -0.02064,-0.51323 0.0746,-0.76825 0.0164,-0.046 0.0418,-0.0857 0.06243,-0.1291 z"
   id="path3883"
   style="fill:url(#radialGradient4362)"
   inkscape:connector-curvature="0" />
<radialGradient
   id="SVGID_19_"
   cx="204.4922"
   cy="133.5508"
   r="86.906998"
   gradientTransform="matrix(0.9373,0.3485,-0.3485,0.9373,-48.2489,-95.3509)"
   gradientUnits="userSpaceOnUse">
	<stop
   offset="0"
   style="stop-color:#71CFEB"
   id="stop3886" />
	<stop
   offset="0.4364"
   style="stop-color:#38ACDE"
   id="stop3888" />
	<stop
   offset="0.6"
   style="stop-color:#229ED9"
   id="stop3890" />
	<stop
   offset="0.666"
   style="stop-color:#2299D4"
   id="stop3892" />
	<stop
   offset="0.7428"
   style="stop-color:#218BC6"
   id="stop3894" />
	<stop
   offset="0.825"
   style="stop-color:#1F74AF"
   id="stop3896" />
	<stop
   offset="0.9109"
   style="stop-color:#1E548E"
   id="stop3898" />
	<stop
   offset="0.999"
   style="stop-color:#1B2B65"
   id="stop3900" />
	<stop
   offset="1"
   style="stop-color:#1B2B64"
   id="stop3902" />
</radialGradient>
<path
   d="m 76.901058,50.867719 c 0.469312,-5.07301 -0.01587,-10.11798 -1.359259,-14.89629 -0.265609,-0.006 -0.534921,-0.0455 -0.798942,-0.14339 -0.727513,-0.2709 -1.241799,-0.85344 -1.469841,-1.53756 -4.848677,0.98783 -10.132275,1.17936 -15.576191,0.48571 8.157143,3.2037 14.7,8.91958 19.204233,16.09153 z"
   id="path3904"
   style="fill:url(#radialGradient4364)"
   inkscape:connector-curvature="0" />
<radialGradient
   id="SVGID_20_"
   cx="204.49271"
   cy="133.5508"
   r="86.9067"
   gradientTransform="matrix(0.9373,0.3485,-0.3485,0.9373,-48.2489,-95.3509)"
   gradientUnits="userSpaceOnUse">
	<stop
   offset="0"
   style="stop-color:#71CFEB"
   id="stop3907" />
	<stop
   offset="0.4364"
   style="stop-color:#38ACDE"
   id="stop3909" />
	<stop
   offset="0.6"
   style="stop-color:#229ED9"
   id="stop3911" />
	<stop
   offset="0.666"
   style="stop-color:#2299D4"
   id="stop3913" />
	<stop
   offset="0.7428"
   style="stop-color:#218BC6"
   id="stop3915" />
	<stop
   offset="0.825"
   style="stop-color:#1F74AF"
   id="stop3917" />
	<stop
   offset="0.9109"
   style="stop-color:#1E548E"
   id="stop3919" />
	<stop
   offset="0.999"
   style="stop-color:#1B2B65"
   id="stop3921" />
	<stop
   offset="1"
   style="stop-color:#1B2B64"
   id="stop3923" />
</radialGradient>
<path
   d="m 55.306349,34.511639 c -0.0016,0.004 -0.0021,0.007 -0.0032,0.0111 -0.435979,1.17196 -1.604762,1.84762 -2.792593,1.72064 -1.470899,4.60264 -2.072487,9.29259 -1.91164,13.89471 0.01005,0.004 0.02116,0.005 0.03175,0.009 0.852381,0.31693 1.416931,1.05608 1.565079,1.89206 7.835979,2.82857 15.873545,3.45926 23.28254,2.2217 -0.0672,-0.38731 -0.04497,-0.79736 0.101587,-1.19365 0.225397,-0.60635 0.680953,-1.05821 1.229101,-1.30106 -4.574603,-7.54603 -11.389418,-13.53863 -19.9709,-16.72963 -0.508994,-0.18995 -1.020106,-0.36085 -1.531746,-0.52487 z"
   id="path3925"
   style="fill:url(#radialGradient4366)"
   inkscape:connector-curvature="0" />
<radialGradient
   id="SVGID_21_"
   cx="204.4883"
   cy="133.5508"
   r="86.900398"
   gradientTransform="matrix(0.9373,0.3485,-0.3485,0.9373,-48.2489,-95.3509)"
   gradientUnits="userSpaceOnUse">
	<stop
   offset="0"
   style="stop-color:#71CFEB"
   id="stop3928" />
	<stop
   offset="0.4364"
   style="stop-color:#38ACDE"
   id="stop3930" />
	<stop
   offset="0.6"
   style="stop-color:#229ED9"
   id="stop3932" />
	<stop
   offset="0.666"
   style="stop-color:#2299D4"
   id="stop3934" />
	<stop
   offset="0.7428"
   style="stop-color:#218BC6"
   id="stop3936" />
	<stop
   offset="0.825"
   style="stop-color:#1F74AF"
   id="stop3938" />
	<stop
   offset="0.9109"
   style="stop-color:#1E548E"
   id="stop3940" />
	<stop
   offset="0.999"
   style="stop-color:#1B2B65"
   id="stop3942" />
	<stop
   offset="1"
   style="stop-color:#1B2B64"
   id="stop3944" />
</radialGradient>
<path
   d="m 33.392593,27.114809 c -0.737037,-0.43174 -1.087302,-1.32645 -0.813228,-2.15873 -1.84709,-1.32328 -3.570899,-2.73862 -5.158201,-4.23068 -1.014815,1.09735 -1.956085,2.25979 -2.828571,3.47936 0.979365,3.20953 2.413756,6.32011 4.240211,9.25979 0.273545,-0.11746 0.578307,-0.15661 0.883069,-0.10265 1.060847,-2.21375 2.291534,-4.30105 3.67672,-6.24709 z"
   id="path3946"
   style="fill:url(#radialGradient4368)"
   inkscape:connector-curvature="0" />
<radialGradient
   id="SVGID_22_"
   cx="204.49271"
   cy="133.5508"
   r="86.906898"
   gradientTransform="matrix(0.9373,0.3485,-0.3485,0.9373,-48.2489,-95.3509)"
   gradientUnits="userSpaceOnUse">
	<stop
   offset="0"
   style="stop-color:#71CFEB"
   id="stop3949" />
	<stop
   offset="0.4364"
   style="stop-color:#38ACDE"
   id="stop3951" />
	<stop
   offset="0.6"
   style="stop-color:#229ED9"
   id="stop3953" />
	<stop
   offset="0.666"
   style="stop-color:#2299D4"
   id="stop3955" />
	<stop
   offset="0.7428"
   style="stop-color:#218BC6"
   id="stop3957" />
	<stop
   offset="0.825"
   style="stop-color:#1F74AF"
   id="stop3959" />
	<stop
   offset="0.9109"
   style="stop-color:#1E548E"
   id="stop3961" />
	<stop
   offset="0.999"
   style="stop-color:#1B2B65"
   id="stop3963" />
	<stop
   offset="1"
   style="stop-color:#1B2B64"
   id="stop3965" />
</radialGradient>
<path
   d="m 57.431217,76.906879 c -2.634392,0.65026 -5.472487,1.47936 -7.828042,2.20635 1.559788,0.27989 3.665608,0.45661 6.41746,0.30899 1.909524,-0.10317 3.779365,-0.44338 5.61746,-0.93121 -0.698412,-0.71006 -1.371428,-1.44022 -2.016402,-2.19418 -0.667196,0.21164 -1.394709,0.41375 -2.190476,0.61005 z"
   id="path3967"
   style="fill:url(#radialGradient4370)"
   inkscape:connector-curvature="0" />
<radialGradient
   id="SVGID_23_"
   cx="204.4922"
   cy="133.5498"
   r="86.905502"
   gradientTransform="matrix(0.9373,0.3485,-0.3485,0.9373,-48.2489,-95.3509)"
   gradientUnits="userSpaceOnUse">
	<stop
   offset="0"
   style="stop-color:#71CFEB"
   id="stop3970" />
	<stop
   offset="0.4364"
   style="stop-color:#38ACDE"
   id="stop3972" />
	<stop
   offset="0.6"
   style="stop-color:#229ED9"
   id="stop3974" />
	<stop
   offset="0.666"
   style="stop-color:#2299D4"
   id="stop3976" />
	<stop
   offset="0.7428"
   style="stop-color:#218BC6"
   id="stop3978" />
	<stop
   offset="0.825"
   style="stop-color:#1F74AF"
   id="stop3980" />
	<stop
   offset="0.9109"
   style="stop-color:#1E548E"
   id="stop3982" />
	<stop
   offset="0.999"
   style="stop-color:#1B2B65"
   id="stop3984" />
	<stop
   offset="1"
   style="stop-color:#1B2B64"
   id="stop3986" />
</radialGradient>
<path
   d="m 45.397354,31.734919 c -3.542857,-1.31693 -6.839153,-2.95238 -9.865079,-4.82381 -0.255555,0.22275 -0.564021,0.3709 -0.897883,0.42857 -1.501059,2.04603 -2.833334,4.24815 -3.956085,6.60635 0.03386,0.045 0.06349,0.0931 0.09312,0.14127 5.156613,-1.65926 10.562433,-2.33915 15.958201,-1.88201 -0.444445,-0.15291 -0.888889,-0.30582 -1.332276,-0.47037 z"
   id="path3988"
   style="fill:url(#radialGradient4372)"
   inkscape:connector-curvature="0" />
<radialGradient
   id="SVGID_24_"
   cx="204.4937"
   cy="133.5488"
   r="86.909203"
   gradientTransform="matrix(0.9373,0.3485,-0.3485,0.9373,-48.2489,-95.3509)"
   gradientUnits="userSpaceOnUse">
	<stop
   offset="0"
   style="stop-color:#71CFEB"
   id="stop3991" />
	<stop
   offset="0.4364"
   style="stop-color:#38ACDE"
   id="stop3993" />
	<stop
   offset="0.6"
   style="stop-color:#229ED9"
   id="stop3995" />
	<stop
   offset="0.666"
   style="stop-color:#2299D4"
   id="stop3997" />
	<stop
   offset="0.7428"
   style="stop-color:#218BC6"
   id="stop3999" />
	<stop
   offset="0.825"
   style="stop-color:#1F74AF"
   id="stop4001" />
	<stop
   offset="0.9109"
   style="stop-color:#1E548E"
   id="stop4003" />
	<stop
   offset="0.999"
   style="stop-color:#1B2B65"
   id="stop4005" />
	<stop
   offset="1"
   style="stop-color:#1B2B64"
   id="stop4007" />
</radialGradient>
<path
   d="m 49.462434,50.020629 c -0.146032,-4.68095 0.477249,-9.4492 1.974603,-14.1291 -0.924868,-0.54338 -1.431217,-1.5873 -1.294709,-2.64338 -0.0873,-0.0238 -0.174074,-0.0434 -0.260317,-0.0672 -6.360318,-1.08412 -12.812699,-0.53703 -18.91217,1.4127 0.05397,0.27196 0.04021,0.56138 -0.06296,0.84021 -0.08148,0.21905 -0.209524,0.40529 -0.365079,0.55926 4.341799,5.97143 10.406878,11.04709 17.792593,14.45556 0.331746,-0.23651 0.721164,-0.37672 1.128042,-0.42805 z"
   id="path4009"
   style="fill:url(#radialGradient4374)"
   inkscape:connector-curvature="0" />
<radialGradient
   id="SVGID_25_"
   cx="204.49319"
   cy="133.5479"
   r="86.9114"
   gradientTransform="matrix(0.9373,0.3485,-0.3485,0.9373,-48.2489,-95.3509)"
   gradientUnits="userSpaceOnUse">
	<stop
   offset="0"
   style="stop-color:#71CFEB"
   id="stop4012" />
	<stop
   offset="0.4364"
   style="stop-color:#38ACDE"
   id="stop4014" />
	<stop
   offset="0.6"
   style="stop-color:#229ED9"
   id="stop4016" />
	<stop
   offset="0.666"
   style="stop-color:#2299D4"
   id="stop4018" />
	<stop
   offset="0.7428"
   style="stop-color:#218BC6"
   id="stop4020" />
	<stop
   offset="0.825"
   style="stop-color:#1F74AF"
   id="stop4022" />
	<stop
   offset="0.9109"
   style="stop-color:#1E548E"
   id="stop4024" />
	<stop
   offset="0.999"
   style="stop-color:#1B2B65"
   id="stop4026" />
	<stop
   offset="1"
   style="stop-color:#1B2B64"
   id="stop4028" />
</radialGradient>
<path
   d="m 47.448148,51.602119 c 0.04815,-0.1291 0.112699,-0.24709 0.178836,-0.3635 -7.480952,-3.50634 -13.637037,-8.67513 -18.049206,-14.75026 -0.107937,0.27566 -0.224868,0.54233 -0.328572,0.82063 -3.355555,9.02487 -3.321693,18.48836 -0.560317,27.00582 3.925397,-0.191 7.698413,0.62911 10.942857,1.33757 1.279894,0.2799 2.489418,0.54233 3.522751,0.69524 1.216932,0.17725 2.426455,0.23016 3.697355,0.15873 1.777249,-0.0995 3.522222,-0.43968 5.213756,-0.7709 0.286773,-0.055 0.578307,-0.1127 0.8709,-0.16825 -1.466138,-3.38413 -2.486773,-6.95873 -3.035979,-10.63387 -0.3291,0.018 -0.666137,-0.028 -0.995238,-0.14973 -1.280952,-0.47566 -1.933333,-1.9 -1.457143,-3.18148 z"
   id="path4030"
   style="fill:url(#radialGradient4376)"
   inkscape:connector-curvature="0" />
<radialGradient
   id="SVGID_26_"
   cx="204.49319"
   cy="133.5518"
   r="86.908798"
   gradientTransform="matrix(0.9373,0.3485,-0.3485,0.9373,-48.2489,-95.3509)"
   gradientUnits="userSpaceOnUse">
	<stop
   offset="0"
   style="stop-color:#71CFEB"
   id="stop4033" />
	<stop
   offset="0.4364"
   style="stop-color:#38ACDE"
   id="stop4035" />
	<stop
   offset="0.6"
   style="stop-color:#229ED9"
   id="stop4037" />
	<stop
   offset="0.666"
   style="stop-color:#2299D4"
   id="stop4039" />
	<stop
   offset="0.7428"
   style="stop-color:#218BC6"
   id="stop4041" />
	<stop
   offset="0.825"
   style="stop-color:#1F74AF"
   id="stop4043" />
	<stop
   offset="0.9109"
   style="stop-color:#1E548E"
   id="stop4045" />
	<stop
   offset="0.999"
   style="stop-color:#1B2B65"
   id="stop4047" />
	<stop
   offset="1"
   style="stop-color:#1B2B64"
   id="stop4049" />
</radialGradient>
<path
   d="m 55.462963,33.581479 c 6.194709,1.06032 12.233333,0.94709 17.689418,-0.21217 0.01376,-0.23862 0.05026,-0.4783 0.138095,-0.71375 0.156614,-0.42011 0.422222,-0.76455 0.744974,-1.03175 -1.994709,-4.91587 -4.926455,-9.43492 -8.664021,-13.28254 -0.452381,0.36667 -1.078836,0.49683 -1.66508,0.27884 -0.0016,-10e-4 -0.0042,-0.003 -0.0074,-0.004 -3.825926,3.54709 -7.014815,7.86826 -9.31217,12.83598 0.676191,0.50423 1.073545,1.29312 1.076191,2.12963 z"
   id="path4051"
   style="fill:url(#radialGradient4378)"
   inkscape:connector-curvature="0" />
<radialGradient
   id="SVGID_27_"
   cx="204.4946"
   cy="133.5479"
   r="86.903603"
   gradientTransform="matrix(0.9373,0.3485,-0.3485,0.9373,-48.2489,-95.3509)"
   gradientUnits="userSpaceOnUse">
	<stop
   offset="0"
   style="stop-color:#71CFEB"
   id="stop4054" />
	<stop
   offset="0.4364"
   style="stop-color:#38ACDE"
   id="stop4056" />
	<stop
   offset="0.6"
   style="stop-color:#229ED9"
   id="stop4058" />
	<stop
   offset="0.666"
   style="stop-color:#2299D4"
   id="stop4060" />
	<stop
   offset="0.7428"
   style="stop-color:#218BC6"
   id="stop4062" />
	<stop
   offset="0.825"
   style="stop-color:#1F74AF"
   id="stop4064" />
	<stop
   offset="0.9109"
   style="stop-color:#1E548E"
   id="stop4066" />
	<stop
   offset="0.999"
   style="stop-color:#1B2B65"
   id="stop4068" />
	<stop
   offset="1"
   style="stop-color:#1B2B64"
   id="stop4070" />
</radialGradient>
<path
   d="m 75.047619,31.114289 c 0.455556,-0.1053 0.944444,-0.0862 1.415344,0.0889 0.498413,0.18625 0.897354,0.51746 1.175132,0.92593 3.080953,-1.05503 5.905291,-2.47619 8.373016,-4.24391 -3.364021,-6.12064 -8.486243,-11.29895 -14.98201,-14.69366 -1.769313,1.02699 -3.456085,2.19948 -5.060318,3.48466 0.04391,0.21482 0.04709,0.43915 0.0048,0.66349 3.917989,3.97461 6.989947,8.66561 9.074074,13.77461 z"
   id="path4072"
   style="fill:url(#radialGradient4380)"
   inkscape:connector-curvature="0" />
<radialGradient
   id="SVGID_28_"
   cx="204.49409"
   cy="133.5498"
   r="86.908096"
   gradientTransform="matrix(0.9373,0.3485,-0.3485,0.9373,-48.2489,-95.3509)"
   gradientUnits="userSpaceOnUse">
	<stop
   offset="0"
   style="stop-color:#71CFEB"
   id="stop4075" />
	<stop
   offset="0.4364"
   style="stop-color:#38ACDE"
   id="stop4077" />
	<stop
   offset="0.6"
   style="stop-color:#229ED9"
   id="stop4079" />
	<stop
   offset="0.666"
   style="stop-color:#2299D4"
   id="stop4081" />
	<stop
   offset="0.7428"
   style="stop-color:#218BC6"
   id="stop4083" />
	<stop
   offset="0.825"
   style="stop-color:#1F74AF"
   id="stop4085" />
	<stop
   offset="0.9109"
   style="stop-color:#1E548E"
   id="stop4087" />
	<stop
   offset="0.999"
   style="stop-color:#1B2B65"
   id="stop4089" />
	<stop
   offset="1"
   style="stop-color:#1B2B64"
   id="stop4091" />
</radialGradient>
<path
   d="m 36.02963,26.216929 c 2.960846,1.83651 6.188889,3.44021 9.660317,4.73069 1.562963,0.58148 3.130159,1.0746 4.695238,1.49947 0.534392,-1.12751 1.768254,-1.72804 2.976191,-1.46349 2.341799,-5.06561 5.584127,-9.47831 9.473016,-13.10635 -0.248149,-0.42646 -0.31799,-0.95238 -0.132276,-1.45238 0.05661,-0.1508 0.137037,-0.28413 0.228043,-0.40794 -1.742328,-1.51958 -3.621164,-2.91005 -5.638625,-4.135979 -8.191534,2.187829 -15.622751,6.871959 -21.13492,13.508469 0.02064,0.25714 -0.009,0.52381 -0.105291,0.78254 -0.0058,0.0169 -0.01534,0.0296 -0.02169,0.045 z"
   id="path4093"
   style="fill:url(#radialGradient4382)"
   inkscape:connector-curvature="0" />
<path
   d="M 67.555026,9.388889 C 47.771429,2.0333329 25.691534,12.14339 18.33545,31.926459 c -4.568784,12.28783 -2.396298,25.45661 4.642857,35.43862 7.173545,-2.92381 14.919577,0.0354 19.930688,0.77143 5.213756,0.76561 8.808994,-0.72222 13.849735,-1.36032 5.04127,-0.63809 7.556614,2.94497 7.161376,4.31587 -0.49418,1.71376 -2.828043,2.89789 -6.91164,3.90477 -5.983069,1.47619 -12.90635,3.83545 -12.90635,3.83545 0,0 2.858201,2.89047 12.049207,2.39523 8.907936,-0.47936 16.745502,-5.63174 24.204233,-8.01587 4.209523,-3.9254 7.598941,-8.85132 9.737037,-14.60317 7.356084,-19.78307 -2.753969,-41.8635 -22.537567,-49.21958 z"
   id="path4095"
   inkscape:connector-curvature="0"
   style="fill:none" />
<path
   d="m 85.167196,72.121689 c -0.01852,0.003 -0.03809,0.006 -0.05714,0.009 -1.536508,0.17936 -3.083598,0.55079 -4.646561,1.0455 -0.03598,0.0111 -0.0709,0.0243 -0.107936,0.036 -0.0011,0.001 -0.0032,0.001 -0.0053,0.002 -4.643387,1.48518 -9.432805,4.04074 -14.536508,5.87513 -0.0042,0.002 -0.009,0.003 -0.0127,0.004 -0.450264,0.16243 -0.905291,0.3164 -1.361905,0.46561 -0.06561,0.0222 -0.130687,0.0455 -0.196825,0.0672 -0.413757,0.13386 -0.82963,0.25555 -1.248148,0.37671 -0.110053,0.0328 -0.219048,0.0683 -0.329101,0.0995 -0.380423,0.10687 -0.765079,0.20105 -1.150264,0.2947 -0.149207,0.037 -0.296826,0.0794 -0.445503,0.11482 -0.35873,0.0831 -0.722222,0.15079 -1.083598,0.22275 -0.178307,0.0344 -0.354497,0.0773 -0.533862,0.10847 -0.359789,0.0635 -0.723281,0.11058 -1.086773,0.16137 -0.184127,0.0254 -0.365608,0.0593 -0.551322,0.082 -0.549736,0.0645 -1.103704,0.1127 -1.661905,0.14286 -9.191005,0.49524 -12.049206,-2.39524 -12.049206,-2.39524 0,0 6.839153,-2.06243 12.822222,-3.53862 4.084127,-1.00741 6.350264,-2.53863 6.995238,-4.20159 0.648148,-1.67143 -2.119577,-4.95397 -7.161376,-4.31587 -5.040741,0.63809 -8.636508,2.12645 -13.849735,1.36031 -5.00582,-0.73597 -12.742857,-3.68941 -19.911111,-0.77883 -0.0069,0.002 -0.01323,0.004 -0.01958,0.007 -0.02593,0.0106 -0.05026,0.019 -0.07566,0.0286 -0.264551,0.11058 -1.087302,0.36666 -2.914286,1.53227 -6.013229,3.8381 -10.569313,15.07725 -10.569313,15.07725 0,0 12.700001,3.45027 25.580953,7.25714 14.269312,4.21694 21.751852,3.56191 31.587831,-1.33756 22.695767,-11.30582 29.311111,-12.24339 29.759788,-13.52222 0.34709,-0.99313 -2.261905,-5.28995 -11.180423,-4.28096 z"
   id="path4097"
   inkscape:connector-curvature="0"
   style="fill:#fed9a0" />
<linearGradient
   id="SVGID_29_"
   gradientUnits="userSpaceOnUse"
   x1="153.03371"
   y1="59.556599"
   x2="244.10561"
   y2="131.90359"
   gradientTransform="matrix(0.9373,0.3485,-0.3485,0.9373,-48.2489,-95.3509)">
	<stop
   offset="0"
   style="stop-color:#FFFFFF"
   id="stop4100" />
	<stop
   offset="1"
   style="stop-color:#FFFFFF;stop-opacity:0"
   id="stop4102" />
</linearGradient>
<path
   d="m 46.948148,65.999469 c -15.765079,-9.02487 -23.262434,-26.06878 -17.83545,-40.6619 1.934921,-5.20318 4.347619,-10.54127 10.069313,-13.161909 8.759788,-3.931745 18.518518,-4.259787 27.491534,-0.92275 18.755026,6.973549 28.339683,27.904229 21.365608,46.658199 -1.728571,4.64974 -4.324867,8.80741 -7.719576,12.36349 -4.368254,1.31217 -9.132805,1.84709 -13.899471,1.56826 0.460846,-2.27937 -1.375132,-5.48043 -5.020106,-6.83598 -1.557143,-0.57937 -3.267725,-0.75662 -5.08254,-0.52646 -1.647619,0.209 -3.115344,0.49577 -4.535449,0.77196 -1.576191,0.30794 -3.198942,0.6254 -4.833863,0.74709 z"
   id="path4104"
   style="opacity:0.95;fill:url(#linearGradient4384)"
   inkscape:connector-curvature="0" />
<path
   d="m 95.192063,70.144969 c -1.759259,-1.39894 -4.557142,-2.26296 -6.39947,-2.71217 1.561904,-2.44338 2.891534,-5.08306 3.934391,-7.91164 7.879366,-21.3746 -3.099471,-45.17301 -24.473016,-53.051847 -21.373545,-7.879365 -45.173016,3.098413 -53.052382,24.472487 -4.219576,11.44762 -3.02328,23.58571 2.276192,33.60476 -1.49418,1.03386 -4.160319,3.93915 -6.538626,7.92434 -2.8724859,4.81323 -3.4111103,10.80317 -3.4111103,10.80317 0,0 3.6788353,-9.64285 7.9989413,-13.4619 3.196827,-2.82593 5.951324,-3.72963 5.951324,-3.72963 -6.304234,-9.84444 -8.101588,-22.42169 -3.756085,-34.21058 7.367196,-19.984129 29.61799,-30.24762 49.601058,-22.881483 19.984127,7.367193 30.250265,29.617463 22.882011,49.601053 -1.710582,4.64392 -4.231217,8.7545 -7.336508,12.24657 1.12963,-0.20212 2.431746,-0.36614 3.824868,-0.409 0.0063,-0.008 0.01217,-0.0153 0.01799,-0.0233 1.360847,-0.0714 3.755556,-0.0915 5.325926,0.4873 5.002646,1.84445 6.869312,5.03598 6.869312,5.03598 0,0 0.759789,-2.22434 -3.714815,-5.78413 z"
   id="path4106"
   inkscape:connector-curvature="0"
   style="fill:#fed9a0" />
<rect
   id="_x3C_Slice_x3E__1_"
   width="277.77777"
   height="100"
   x="-4.9804692e-007"
   y="0"
   style="fill:none" />
</svg>